<mxfile host="app.diagrams.net" modified="2024-04-16T14:59:46.464Z" agent="Mozilla/5.0 (Windows NT 10.0; Win64; x64) AppleWebKit/537.36 (KHTML, like Gecko) Chrome/121.0.0.0 Safari/537.36 OPR/107.0.0.0" etag="y8h9yjlhvbnX02t_Xu3w" version="24.2.5" type="device">
  <diagram name="Strona-1" id="SmEjt2J77uZcTOo1GENp">
    <mxGraphModel dx="1009" dy="573" grid="1" gridSize="10" guides="1" tooltips="1" connect="1" arrows="1" fold="1" page="1" pageScale="1" pageWidth="827" pageHeight="1169" math="0" shadow="0">
      <root>
        <mxCell id="0" />
        <mxCell id="1" parent="0" />
        <mxCell id="4nwhpVZq8aCLDnUjdJfD-1" value="Zautomatyzowany&amp;nbsp;&lt;div&gt;dostęp do szafek&lt;/div&gt;" style="ellipse;whiteSpace=wrap;html=1;" vertex="1" parent="1">
          <mxGeometry x="350" y="150" width="140" height="70" as="geometry" />
        </mxCell>
        <mxCell id="4nwhpVZq8aCLDnUjdJfD-2" value="Klient" style="shape=umlActor;verticalLabelPosition=bottom;verticalAlign=top;html=1;" vertex="1" parent="1">
          <mxGeometry x="80" y="170" width="30" height="60" as="geometry" />
        </mxCell>
        <mxCell id="4nwhpVZq8aCLDnUjdJfD-5" value="Trener Personalny" style="shape=umlActor;verticalLabelPosition=bottom;verticalAlign=top;html=1;" vertex="1" parent="1">
          <mxGeometry x="90" y="340" width="30" height="60" as="geometry" />
        </mxCell>
        <mxCell id="4nwhpVZq8aCLDnUjdJfD-6" value="Obsługa centrum" style="shape=umlActor;verticalLabelPosition=bottom;verticalAlign=top;html=1;" vertex="1" parent="1">
          <mxGeometry x="250" y="440" width="30" height="60" as="geometry" />
        </mxCell>
        <mxCell id="4nwhpVZq8aCLDnUjdJfD-7" value="Wejście przez skan QR" style="ellipse;whiteSpace=wrap;html=1;" vertex="1" parent="1">
          <mxGeometry x="180" y="60" width="140" height="70" as="geometry" />
        </mxCell>
        <mxCell id="4nwhpVZq8aCLDnUjdJfD-8" value="Automatyczne bramki, pomiędzy strefami" style="ellipse;whiteSpace=wrap;html=1;" vertex="1" parent="1">
          <mxGeometry x="260" y="280" width="140" height="70" as="geometry" />
        </mxCell>
        <mxCell id="4nwhpVZq8aCLDnUjdJfD-9" value="Wykupienie pakietów" style="ellipse;whiteSpace=wrap;html=1;" vertex="1" parent="1">
          <mxGeometry x="510" y="260" width="140" height="70" as="geometry" />
        </mxCell>
        <mxCell id="4nwhpVZq8aCLDnUjdJfD-10" value="Rozpisanie planu treningowego online" style="ellipse;whiteSpace=wrap;html=1;" vertex="1" parent="1">
          <mxGeometry x="590" y="110" width="140" height="70" as="geometry" />
        </mxCell>
        <mxCell id="4nwhpVZq8aCLDnUjdJfD-11" value="Monitorowanie efektów ćwiczeń" style="ellipse;whiteSpace=wrap;html=1;" vertex="1" parent="1">
          <mxGeometry x="430" y="390" width="140" height="70" as="geometry" />
        </mxCell>
        <mxCell id="4nwhpVZq8aCLDnUjdJfD-12" value="Rejestrowanie wyników treningów" style="ellipse;whiteSpace=wrap;html=1;" vertex="1" parent="1">
          <mxGeometry x="670" y="370" width="140" height="70" as="geometry" />
        </mxCell>
        <mxCell id="4nwhpVZq8aCLDnUjdJfD-13" value="Zarządzanie karnetem online" style="ellipse;whiteSpace=wrap;html=1;" vertex="1" parent="1">
          <mxGeometry x="420" y="40" width="140" height="70" as="geometry" />
        </mxCell>
        <mxCell id="4nwhpVZq8aCLDnUjdJfD-14" value="Powiadamianie o treningach" style="ellipse;whiteSpace=wrap;html=1;" vertex="1" parent="1">
          <mxGeometry x="670" y="30" width="140" height="70" as="geometry" />
        </mxCell>
        <mxCell id="4nwhpVZq8aCLDnUjdJfD-15" value="Udostępnianie wyników w social mediach&amp;nbsp;" style="ellipse;whiteSpace=wrap;html=1;" vertex="1" parent="1">
          <mxGeometry x="170" y="180" width="140" height="70" as="geometry" />
        </mxCell>
        <mxCell id="4nwhpVZq8aCLDnUjdJfD-16" value="Use Case" style="ellipse;whiteSpace=wrap;html=1;" vertex="1" parent="1">
          <mxGeometry x="660" y="230" width="140" height="70" as="geometry" />
        </mxCell>
        <mxCell id="4nwhpVZq8aCLDnUjdJfD-17" value="Dostęp do sposobu wykonywania ćwiczeń" style="ellipse;whiteSpace=wrap;html=1;" vertex="1" parent="1">
          <mxGeometry x="560" y="470" width="140" height="70" as="geometry" />
        </mxCell>
        <mxCell id="4nwhpVZq8aCLDnUjdJfD-18" value="Wykupienie rozpiski diety" style="ellipse;whiteSpace=wrap;html=1;" vertex="1" parent="1">
          <mxGeometry x="25" y="30" width="140" height="70" as="geometry" />
        </mxCell>
        <mxCell id="4nwhpVZq8aCLDnUjdJfD-19" value="Wykupienie kateringu" style="ellipse;whiteSpace=wrap;html=1;" vertex="1" parent="1">
          <mxGeometry x="370" y="480" width="140" height="70" as="geometry" />
        </mxCell>
        <mxCell id="4nwhpVZq8aCLDnUjdJfD-20" value="Dostęp do bazy danych klientów" style="ellipse;whiteSpace=wrap;html=1;" vertex="1" parent="1">
          <mxGeometry x="500" y="180" width="140" height="70" as="geometry" />
        </mxCell>
        <mxCell id="4nwhpVZq8aCLDnUjdJfD-21" value="Tworzenie zapotrzebowania na produkty spożywcze" style="ellipse;whiteSpace=wrap;html=1;" vertex="1" parent="1">
          <mxGeometry x="290" y="370" width="140" height="70" as="geometry" />
        </mxCell>
        <mxCell id="4nwhpVZq8aCLDnUjdJfD-22" value="Komunikacja z klientami online" style="ellipse;whiteSpace=wrap;html=1;" vertex="1" parent="1">
          <mxGeometry x="400" y="300" width="140" height="70" as="geometry" />
        </mxCell>
        <mxCell id="4nwhpVZq8aCLDnUjdJfD-23" value="Wysyłanie ofert promocyjnych" style="ellipse;whiteSpace=wrap;html=1;" vertex="1" parent="1">
          <mxGeometry x="40" y="490" width="140" height="70" as="geometry" />
        </mxCell>
        <mxCell id="4nwhpVZq8aCLDnUjdJfD-24" value="Obsługa płatności" style="ellipse;whiteSpace=wrap;html=1;" vertex="1" parent="1">
          <mxGeometry x="560" y="390" width="140" height="70" as="geometry" />
        </mxCell>
      </root>
    </mxGraphModel>
  </diagram>
</mxfile>
